<svg id="Capa_1" enable-background="new 0 0 512 512" height="512" viewBox="0 0 512 512" width="512" xmlns="http://www.w3.org/2000/svg"><g><path d="m43.306 162.474s-32.906 10.267-43.306 54.392c0 0 22.416 18.473 78.852 5.014h354.295c56.437 13.46 78.853-5.014 78.853-5.014-10.4-44.125-43.306-54.392-43.306-54.392l-199.919-73.853z" fill="#985e33"/><path d="m481.557 156.719-56.925 25.477h-337.264l-56.925-25.477c-22.152-9.912-34.168-34.127-28.668-57.767l19.639-84.3c2.473-10.61 14.046-13.391 21.475-8.63 2.945 1.878 5.233 4.956 6.033 9.204l13.883 73.394 86.045 9.676h214.301l86.045-9.676 13.883-73.394c1.529-8.096 8.465-11.933 15.032-11.399 5.572.451 10.897 4.032 12.477 10.825l19.639 84.3c5.498 23.64-6.518 47.855-28.67 57.767z" fill="#f9f6f9"/><path d="m461.939 113.358c-25.077 15.257-124.357 15.257-124.357 15.257l3.971-30.32h21.598l86.045-9.676 13.883-73.394c1.529-8.096 8.465-11.933 15.032-11.399 1.671 31.531 2.82 97.978-16.172 109.532z" fill="#dfdde2"/><path d="m158.351 162.475-8.568 19.721h-62.415l-56.925-25.477c-22.152-9.912-34.168-34.127-28.668-57.767l19.639-84.3c2.473-10.61 14.046-13.391 21.475-8.63-4.905 28.114-16.54 106.196 1.867 124.604 22.563 22.563 113.595 31.849 113.595 31.849z" fill="#dfdde2"/><path d="m434.663 257.813c0-138.297-79.991-186.28-178.665-186.28s-178.665 47.983-178.665 186.28 79.991 250.41 178.665 250.41 178.665-112.112 178.665-250.41z" fill="#c17d4f"/><path d="m255.994 508.217c-98.665 0-178.656-112.106-178.656-250.408 0-137.696 79.283-185.859 177.353-186.27-55.294.749-99.886 49.045-99.886 186.27-.001 138.302 45.3 250.408 101.189 250.408z" fill="#985e33"/><ellipse cx="255.998" cy="398.154" fill="#e4936b" rx="138.734" ry="110.069"/><path d="m354.612 475.564c-25.149 20.172-60.045 32.659-98.614 32.659-76.626 0-138.732-49.281-138.732-110.075 0-43.361 31.602-80.863 77.539-98.799-24.789 19.885-40.108 47.229-40.108 77.405 0 60.794 62.117 110.075 138.743 110.075 21.956.001 42.723-4.052 61.172-11.265z" fill="#dd6938"/><g fill="#384649"><ellipse cx="192.554" cy="403.889" rx="28.282" ry="21.018"/><ellipse cx="319.441" cy="403.889" rx="28.282" ry="21.018"/></g><g fill="#282528"><path d="m135.289 208.166c-12.856 0-23.315 15.631-23.315 34.845s10.459 34.845 23.315 34.845c12.855 0 23.314-15.631 23.314-34.845s-10.459-34.845-23.314-34.845z"/><path d="m376.707 208.166c-12.856 0-23.315 15.631-23.315 34.845 0 19.213 10.459 34.845 23.315 34.845 12.855 0 23.314-15.631 23.314-34.845 0-19.213-10.459-34.845-23.314-34.845z"/></g><path d="m399.77 92.98c-13.759 32.628-94.982 5.141-94.982 5.141s-6.464 53.355-48.789 53.355-48.789-53.355-48.789-53.355-81.222 27.488-94.982-5.141c-13.759-32.618 52.041-42.581 52.041-42.581s-39.287-14.047-28.986-34.096c10.314-20.059 82.497-5.017 120.717 15.042 38.22-20.059 110.403-35.101 120.715-15.042 10.301 20.049-28.986 34.096-28.986 34.096s65.801 9.963 52.041 42.581z" fill="#665e66"/><path d="m256 151.475c-42.325 0-48.789-53.355-48.789-53.355s-81.222 27.488-94.982-5.141c-13.759-32.618 52.041-42.581 52.041-42.581s-39.287-14.047-28.986-34.096c10.313-20.058 82.496-5.016 120.716 15.043-23.261-10.127-47.075.849-35.163 17.379 0 0-28.278-3.598-28.278 19.611 0 23.22 43.382 24.645 43.382 24.645s-9.04 44.921 20.059 58.495z" fill="#454045"/></g></svg>